<!DOCTYPE svg PUBLIC "-//W3C//DTD SVG 1.1//EN" "http://www.w3.org/Graphics/SVG/1.1/DTD/svg11.dtd">
<svg xmlns="http://www.w3.org/2000/svg" viewBox="56.693 396.881 56.693 56.705">
  <path d="M112.615 445.905l-11.04-11.039c-.499-.5-1.174-.775-1.883-.775h-1.805c3.056-3.91 4.872-8.826 4.872-14.174 0-12.725-10.31-23.035-23.034-23.035-12.723 0-23.033 10.311-23.033 23.035 0 12.723 10.31 23.033 23.033 23.033 5.349 0 10.266-1.816 14.175-4.873v1.805c0 .709.276 1.385.775 1.883l11.04 11.041c1.041 1.041 2.725 1.041 3.754 0l3.134-3.135c1.042-1.042 1.042-2.725.012-3.766zM79.726 434.09c-7.829 0-14.174-6.334-14.174-14.174 0-7.83 6.334-14.176 14.174-14.176 7.83 0 14.175 6.334 14.175 14.176 0 7.828-6.334 14.174-14.175 14.174z"/>
</svg>
